# xmcd CD database file
#
# Track frame offsets:
#	150
#	26930
#	45081
#	71652
#	98213
#	114343
#	129845
#	144455
#	161544
#	177982
#	200085
#	227043
#
# Disc length: 3220 seconds
#
# Revision: 1
# Processed by: cddbd v1.5.2PL0 Copyright (c) Steve Scherf et al.
# Submitted via: CDex 1.70beta2
#
DISCID=9f0c920c
DTITLE=Młynarski plays Młynarski - Rebeka nie zejdzie dziś na kolacje
DYEAR=2010
DGENRE=Pop
TTITLE0=Nie ma jak u mamy
TTITLE1=Róbmy swoje
TTITLE2=Fruwa twoja marynara
TTITLE3=Ogrzej mnie
TTITLE4=Ballada o dzikim zachodzie
TTITLE5=Podchodzą mnie wolne numery
TTITLE6=Ballada o tych co się za pewnie poczuli
TTITLE7=Panowie bądźcie dla nas dobrzy na zime
TTITLE8=Lubię wrony
TTITLE9=La valse du mal
TTITLE10=Jesteśmy na wczasach
TTITLE11=Szara kolęda
EXTD=YEAR: 2010
EXTT0=
EXTT1=
EXTT2=
EXTT3=
EXTT4=
EXTT5=
EXTT6=
EXTT7=
EXTT8=
EXTT9=
EXTT10=
EXTT11=
PLAYORDER=
